<svg preserveAspectRatio="none" overflow="visible" style="display: block;" width="30" height="30" viewBox="0 0 30 30" fill="none" xmlns="http://www.w3.org/2000/svg">
<g id="Step 1 / Icon">
<path id="Vector" d="M22.5 5H7.5C5.42893 5 3.75 6.67893 3.75 8.75V21.25C3.75 23.3211 5.42893 25 7.5 25H22.5C24.5711 25 26.25 23.3211 26.25 21.25V8.75C26.25 6.67893 24.5711 5 22.5 5Z" stroke="#FF0073" stroke-width="2"/>
<path id="Vector_2" d="M11.25 15C12.6307 15 13.75 13.8807 13.75 12.5C13.75 11.1193 12.6307 10 11.25 10C9.86929 10 8.75 11.1193 8.75 12.5C8.75 13.8807 9.86929 15 11.25 15Z" fill="#FF0073"/>
<path id="Vector_3" d="M6.25 22.5L11.875 16.875L15.625 20.625L18.75 17.5L23.75 22.5" stroke="#FF0073" stroke-width="2" stroke-linecap="round" stroke-linejoin="round"/>
</g>
</svg>
